<svg xmlns="http://www.w3.org/2000/svg" fill="none" viewBox="0 0 20 20" class="icon"><g clip-path="url(#android_svg__a)"><path fill="#fff" d="M10 20c5.523 0 10-4.477 10-10S15.523 0 10 0 0 4.477 0 10s4.477 10 10 10"></path><path fill="#000" d="M13.319 11.422a.6.6 0 1 1 0-1.201.6.6 0 0 1 0 1.2m-6.638 0a.6.6 0 1 1 0-1.201.6.6 0 0 1 0 1.2m6.853-3.617 1.2-2.079a.25.25 0 0 0-.091-.34.25.25 0 0 0-.341.09l-1.216 2.105A7.4 7.4 0 0 0 10 6.921a7.4 7.4 0 0 0-3.086.66L5.698 5.476a.25.25 0 0 0-.432.25l1.2 2.079a7.09 7.09 0 0 0-3.676 5.672h14.42a7.09 7.09 0 0 0-3.676-5.672"></path></g><defs><clipPath id="android_svg__a"><path fill="#000" d="M0 0h20v20H0z"></path></clipPath></defs></svg>