<svg xmlns="http://www.w3.org/2000/svg" fill="none" viewBox="0 0 20 20" class="icon"><g clip-path="url(#figma_svg__a)"><path fill="#fff" d="M10 20c5.523 0 10-4.477 10-10S15.523 0 10 0 0 4.477 0 10s4.477 10 10 10"></path><path fill="#000" d="M13.74 7.775a2.66 2.66 0 0 0-1.458-4.885H7.718A2.66 2.66 0 0 0 6.26 7.776a2.66 2.66 0 0 0 0 4.449 2.66 2.66 0 0 0-1.204 2.225 2.67 2.67 0 0 0 2.675 2.66 2.7 2.7 0 0 0 2.704-2.69v-2.452c.473.43 1.1.693 1.789.693h.057a2.66 2.66 0 0 0 1.457-4.885m-3.304-4.014h1.846c.987 0 1.79.803 1.79 1.79 0 .986-.803 1.788-1.79 1.788h-1.846zm-4.508 1.79c0-.987.803-1.79 1.79-1.79h1.846V7.34H7.718c-.987 0-1.79-.802-1.79-1.789m0 4.449c0-.986.803-1.79 1.79-1.79h1.846v3.579H7.718A1.79 1.79 0 0 1 5.928 10m3.636 4.42a1.827 1.827 0 0 1-1.832 1.819 1.8 1.8 0 0 1-1.804-1.79c0-.986.803-1.788 1.79-1.788h1.846zm2.718-2.631h-.057A1.79 1.79 0 0 1 10.435 10c0-.986.803-1.79 1.79-1.79h.057c.987 0 1.79.804 1.79 1.79a1.79 1.79 0 0 1-1.79 1.789"></path></g><defs><clipPath id="figma_svg__a"><path fill="#000" d="M0 0h20v20H0z"></path></clipPath></defs></svg>