<svg xmlns="http://www.w3.org/2000/svg" fill="none" viewBox="0 0 20 20" class="icon"><g clip-path="url(#git_svg__a)"><path fill="#fff" d="M10 0a10 10 0 1 0 0 20 10 10 0 0 0 0-20m-.526 8.553a4 4 0 0 1-.433.122q.085.226.088.468c0 .942-.574 1.664-1.488 1.842-.275.058-.433.174-.433.476 0 .855 2.225.274 2.225 1.842C9.433 14.582 8.58 15 7.434 15c-.94 0-2.016-.32-2.016-1.47 0-.667.395-1.052.998-1.254v-.022c-.552-.338-.436-1.283-.023-1.468v-.023c-.556-.19-.913-.964-.913-1.529 0-1.516 1.61-2.237 2.795-1.545.413-.01.82-.1 1.2-.263zm1.756 3.79h-1.223c.035-.403.04-4.531 0-4.861h1.223c-.04.326-.035 4.46 0 4.861m-.609-5.717a.814.814 0 0 1 0-1.626c.437 0 .745.395.745.818 0 .424-.313.808-.745.808m3.962 5.573a2.1 2.1 0 0 1-1.003.217c-1.184 0-1.315-.941-1.315-1.912V8.553h.01V8.53a1.8 1.8 0 0 0-.526.023V7.486h.526a5.5 5.5 0 0 0-.033-.922h1.25a6 6 0 0 0-.033.922h1.124v1.067s-.425-.023-1.124-.023v2.028c0 .33.073.732.48.732.229.001.453-.063.645-.186zm-8.049 1.273c0 .503.573.564.954.564.401 0 .83-.102.83-.587 0-.486-.526-.558-.907-.558-.382 0-.875.084-.877.581m.117-4.226c0 .463.204.754.69.754.485 0 .658-.312.658-.766-.004-1.076-1.348-1.09-1.348.012"></path></g><defs><clipPath id="git_svg__a"><path fill="#000" d="M0 0h20v20H0z"></path></clipPath></defs></svg>