<svg xmlns="http://www.w3.org/2000/svg" fill="none" viewBox="0 0 20 20" class="icon"><g clip-path="url(#apple_svg__a)"><path fill="#fff" fill-rule="evenodd" d="M12.344 5.729q-.55 0-1.298.256-.75.257-1.079.257-.256 0-1.038-.227-.781-.228-1.331-.228-1.291 0-2.139 1.086-.847 1.085-.847 2.81c.002.636.096 1.269.278 1.878.201.666.48 1.306.83 1.908q.557.975 1.122 1.463t1.137.488q.381 0 .994-.253t1.075-.253 1.133.242 1.053.242q.484 0 .969-.367.483-.367.968-1.108.307-.464.554-.96.223-.449.37-.925-.667-.198-1.188-.947a2.87 2.87 0 0 1-.253-2.857q.267-.576 1.082-1.266-.52-.645-1.1-.942a2.8 2.8 0 0 0-1.292-.297m-.124-2.832q-1.314.3-1.882 1.115-.57.814-.584 1.93.573-.03.918-.184c.252-.12.481-.283.675-.484.3-.293.538-.646.697-1.035q.22-.558.22-1.027 0-.074-.008-.147a1 1 0 0 0-.037-.168M10 .335a9.68 9.68 0 0 1 9.68 9.68c0 5.346-4.334 9.68-9.68 9.68S.32 15.36.32 10.015A9.68 9.68 0 0 1 10 .335" clip-rule="evenodd"></path></g><defs><clipPath id="apple_svg__a"><path fill="#000" d="M0 0h20v20H0z"></path></clipPath></defs></svg>